<svg width="32" height="32" viewBox="0 0 32 32" fill="none" xmlns="http://www.w3.org/2000/svg">
<circle cx="16" cy="16" r="16" fill="#4CED8C"/>
<path d="M15.982 24.0299C16.99 24.0299 17.86 23.8439 18.592 23.4719C19.324 23.0999 19.882 22.6079 20.266 21.9959C20.662 21.3719 20.86 20.6939 20.86 19.9619C20.86 19.2419 20.698 18.6179 20.374 18.0899C20.05 17.5619 19.576 17.1239 18.952 16.7759C19.396 16.4879 19.738 16.0859 19.978 15.5699C20.23 15.0539 20.356 14.5019 20.356 13.9139C20.356 13.1939 20.164 12.5519 19.78 11.9879C19.408 11.4239 18.892 10.9859 18.232 10.6739C17.584 10.3499 16.834 10.1879 15.982 10.1879C15.13 10.1879 14.374 10.3499 13.714 10.6739C13.054 10.9859 12.538 11.4239 12.166 11.9879C11.794 12.5519 11.608 13.1939 11.608 13.9139C11.608 14.5139 11.734 15.0719 11.986 15.5879C12.238 16.0919 12.58 16.4879 13.012 16.7759C11.764 17.4599 11.14 18.5159 11.14 19.9439C11.14 20.6759 11.332 21.3539 11.716 21.9779C12.1 22.6019 12.652 23.0999 13.372 23.4719C14.104 23.8439 14.974 24.0299 15.982 24.0299ZM15.982 15.6959C15.502 15.6959 15.118 15.5459 14.83 15.2459C14.542 14.9339 14.398 14.5559 14.398 14.1119C14.398 13.6559 14.542 13.2779 14.83 12.9779C15.118 12.6779 15.502 12.5279 15.982 12.5279C16.462 12.5279 16.846 12.6779 17.134 12.9779C17.422 13.2779 17.566 13.6559 17.566 14.1119C17.566 14.5559 17.422 14.9339 17.134 15.2459C16.846 15.5459 16.462 15.6959 15.982 15.6959ZM15.982 21.6899C15.37 21.6899 14.872 21.5219 14.488 21.1859C14.116 20.8499 13.93 20.4059 13.93 19.8539C13.93 19.3019 14.116 18.8639 14.488 18.5399C14.872 18.2039 15.37 18.0359 15.982 18.0359C16.606 18.0359 17.11 18.2039 17.494 18.5399C17.878 18.8639 18.07 19.3019 18.07 19.8539C18.07 20.4059 17.878 20.8499 17.494 21.1859C17.11 21.5219 16.606 21.6899 15.982 21.6899Z" fill="white"/>
<circle cx="15.9894" cy="7.47009" r="1.5" fill="white"/>
</svg>
