<svg width="82" height="32" viewBox="0 0 82 32" fill="none" xmlns="http://www.w3.org/2000/svg">
<rect x="0.5" y="0.5" width="81" height="31" fill="white"/>
<path d="M24 12V9H16V12H14V7H26V12H24ZM12 14H28H14H12ZM26 16.5C26.2833 16.5 26.5207 16.404 26.712 16.212C26.904 16.0207 27 15.7833 27 15.5C27 15.2167 26.904 14.979 26.712 14.787C26.5207 14.5957 26.2833 14.5 26 14.5C25.7167 14.5 25.4793 14.5957 25.288 14.787C25.096 14.979 25 15.2167 25 15.5C25 15.7833 25.096 16.0207 25.288 16.212C25.4793 16.404 25.7167 16.5 26 16.5ZM24 23V19H16V23H24ZM26 25H14V21H10V15C10 14.15 10.2917 13.4377 10.875 12.863C11.4583 12.2877 12.1667 12 13 12H27C27.85 12 28.5627 12.2877 29.138 12.863C29.7127 13.4377 30 14.15 30 15V21H26V25ZM28 19V15C28 14.7167 27.904 14.479 27.712 14.287C27.5207 14.0957 27.2833 14 27 14H13C12.7167 14 12.479 14.0957 12.287 14.287C12.0957 14.479 12 14.7167 12 15V19H14V17H26V19H28Z" fill="black"/>
<path d="M48.0795 14.5H47.0227C46.9602 14.196 46.8509 13.929 46.6946 13.6989C46.5412 13.4688 46.3537 13.2756 46.1321 13.1193C45.9134 12.9602 45.6705 12.8409 45.4034 12.7614C45.1364 12.6818 44.858 12.642 44.5682 12.642C44.0398 12.642 43.5611 12.7756 43.1321 13.0426C42.706 13.3097 42.3665 13.7031 42.1136 14.223C41.8636 14.7429 41.7386 15.3807 41.7386 16.1364C41.7386 16.892 41.8636 17.5298 42.1136 18.0497C42.3665 18.5696 42.706 18.9631 43.1321 19.2301C43.5611 19.4972 44.0398 19.6307 44.5682 19.6307C44.858 19.6307 45.1364 19.5909 45.4034 19.5114C45.6705 19.4318 45.9134 19.3139 46.1321 19.1577C46.3537 18.9986 46.5412 18.804 46.6946 18.5739C46.8509 18.3409 46.9602 18.0739 47.0227 17.7727H48.0795C48 18.2187 47.8551 18.6179 47.6449 18.9702C47.4347 19.3224 47.1733 19.6222 46.8608 19.8693C46.5483 20.1136 46.1974 20.2997 45.8082 20.4276C45.4219 20.5554 45.0085 20.6193 44.5682 20.6193C43.8239 20.6193 43.1619 20.4375 42.5824 20.0739C42.0028 19.7102 41.5469 19.1932 41.2145 18.5227C40.8821 17.8523 40.7159 17.0568 40.7159 16.1364C40.7159 15.2159 40.8821 14.4205 41.2145 13.75C41.5469 13.0795 42.0028 12.5625 42.5824 12.1989C43.1619 11.8352 43.8239 11.6534 44.5682 11.6534C45.0085 11.6534 45.4219 11.7173 45.8082 11.8452C46.1974 11.973 46.5483 12.1605 46.8608 12.4077C47.1733 12.652 47.4347 12.9503 47.6449 13.3026C47.8551 13.652 48 14.0511 48.0795 14.5ZM52.3952 20.6364C51.7646 20.6364 51.2205 20.4972 50.7631 20.2188C50.3086 19.9375 49.9577 19.5455 49.7106 19.0426C49.4663 18.5369 49.3441 17.9489 49.3441 17.2784C49.3441 16.608 49.4663 16.017 49.7106 15.5057C49.9577 14.9915 50.3015 14.5909 50.7418 14.304C51.185 14.0142 51.7021 13.8693 52.293 13.8693C52.6339 13.8693 52.9705 13.9261 53.3029 14.0398C53.6353 14.1534 53.9379 14.3381 54.2106 14.5938C54.4833 14.8466 54.7006 15.1818 54.8626 15.5994C55.0245 16.017 55.1055 16.5312 55.1055 17.142V17.5682H50.06V16.6989H54.0827C54.0827 16.3295 54.0089 16 53.8612 15.7102C53.7163 15.4205 53.5089 15.1918 53.239 15.0241C52.9719 14.8565 52.6566 14.7727 52.293 14.7727C51.8924 14.7727 51.5458 14.8722 51.2532 15.071C50.9634 15.267 50.7404 15.5227 50.5842 15.8381C50.4279 16.1534 50.3498 16.4915 50.3498 16.8523V17.4318C50.3498 17.9261 50.435 18.3452 50.6055 18.6889C50.7788 19.0298 51.0188 19.2898 51.3256 19.4688C51.6325 19.6449 51.989 19.733 52.3952 19.733C52.6594 19.733 52.8981 19.696 53.1112 19.6222C53.3271 19.5455 53.5131 19.4318 53.6694 19.2812C53.8256 19.1278 53.9464 18.9375 54.0316 18.7102L55.0032 18.983C54.9009 19.3125 54.729 19.6023 54.4876 19.8523C54.2461 20.0994 53.9478 20.2926 53.5927 20.4318C53.2376 20.5682 52.8384 20.6364 52.3952 20.6364ZM59.4819 13.9545V14.8068H56.0898V13.9545H59.4819ZM57.0785 12.3864H58.0842V18.625C58.0842 18.9091 58.1254 19.1222 58.2077 19.2642C58.293 19.4034 58.4009 19.4972 58.5316 19.5455C58.6651 19.5909 58.8058 19.6136 58.9535 19.6136C59.0643 19.6136 59.1552 19.608 59.2262 19.5966C59.2972 19.5824 59.354 19.571 59.3967 19.5625L59.6012 20.4659C59.533 20.4915 59.4379 20.517 59.3157 20.5426C59.1935 20.571 59.0387 20.5852 58.8512 20.5852C58.5671 20.5852 58.2887 20.5241 58.016 20.402C57.7461 20.2798 57.5217 20.0938 57.3427 19.8438C57.1665 19.5938 57.0785 19.2784 57.0785 18.8977V12.3864ZM62.9208 20.6534C62.506 20.6534 62.1296 20.5753 61.7915 20.419C61.4535 20.2599 61.185 20.0312 60.9862 19.733C60.7873 19.4318 60.6879 19.0682 60.6879 18.642C60.6879 18.267 60.7617 17.9631 60.9094 17.7301C61.0572 17.4943 61.2546 17.3097 61.5018 17.1761C61.7489 17.0426 62.0217 16.9432 62.32 16.8778C62.6211 16.8097 62.9237 16.7557 63.2276 16.7159C63.6254 16.6648 63.9478 16.6264 64.195 16.6009C64.445 16.5724 64.6268 16.5256 64.7404 16.4602C64.8569 16.3949 64.9151 16.2812 64.9151 16.1193V16.0852C64.9151 15.6648 64.8001 15.3381 64.57 15.1051C64.3427 14.8722 63.9975 14.7557 63.5344 14.7557C63.0543 14.7557 62.6779 14.8608 62.4052 15.071C62.1325 15.2812 61.9407 15.5057 61.8299 15.7443L60.8754 15.4034C61.0458 15.0057 61.2731 14.696 61.5572 14.4744C61.8441 14.25 62.1566 14.0937 62.4947 14.0057C62.8356 13.9148 63.1708 13.8693 63.5004 13.8693C63.7106 13.8693 63.9521 13.8949 64.2248 13.946C64.5004 13.9943 64.766 14.0952 65.0217 14.2486C65.2802 14.402 65.4947 14.6335 65.6651 14.9432C65.8356 15.2528 65.9208 15.6676 65.9208 16.1875V20.5H64.9151V19.6136H64.864C64.7958 19.7557 64.6822 19.9077 64.5231 20.0696C64.364 20.2315 64.1523 20.3693 63.8881 20.483C63.6239 20.5966 63.3015 20.6534 62.9208 20.6534ZM63.0742 19.75C63.4719 19.75 63.8072 19.6719 64.0799 19.5156C64.3555 19.3594 64.5629 19.1577 64.7021 18.9105C64.8441 18.6634 64.9151 18.4034 64.9151 18.1307V17.2102C64.8725 17.2614 64.7788 17.3082 64.6339 17.3509C64.4918 17.3906 64.3271 17.4261 64.1396 17.4574C63.9549 17.4858 63.7745 17.5114 63.5984 17.5341C63.4251 17.554 63.2844 17.571 63.1765 17.5852C62.9151 17.6193 62.6708 17.6747 62.4435 17.7514C62.2191 17.8253 62.0373 17.9375 61.8981 18.0881C61.7617 18.2358 61.6935 18.4375 61.6935 18.6932C61.6935 19.0426 61.8228 19.3068 62.0813 19.4858C62.3427 19.6619 62.6737 19.75 63.0742 19.75ZM68.6939 18.1136L68.6768 16.8693H68.8814L71.745 13.9545H72.9893L69.9382 17.0398H69.853L68.6939 18.1136ZM67.7564 20.5V11.7727H68.7621V20.5H67.7564ZM71.9155 20.5L69.3587 17.2614L70.0746 16.5625L73.1939 20.5H71.9155Z" fill="black"/>
<rect x="0.5" y="0.5" width="81" height="31" stroke="#525252"/>
</svg>
