<svg width="24" height="24" viewBox="0 0 24 24" fill="none" xmlns="http://www.w3.org/2000/svg">
<path d="M16.8539 13.647L12.3539 9.147C12.2602 9.05327 12.133 9.00061 12.0004 9.00061C11.8679 9.00061 11.7407 9.05327 11.6469 9.147L7.14695 13.647C7.05587 13.7413 7.00547 13.8676 7.00661 13.9987C7.00775 14.1298 7.06033 14.2552 7.15304 14.3479C7.24574 14.4406 7.37115 14.4932 7.50225 14.4943C7.63335 14.4955 7.75965 14.4451 7.85395 14.354L11.9999 10.207L16.1459 14.354C16.1922 14.4007 16.2473 14.4377 16.308 14.463C16.3687 14.4882 16.4337 14.5012 16.4994 14.5012C16.5652 14.5012 16.6302 14.4882 16.6909 14.463C16.7516 14.4377 16.8067 14.4007 16.8529 14.354C16.9467 14.2602 16.9993 14.1331 16.9993 14.0005C16.9993 13.8679 16.9467 13.7408 16.8529 13.647H16.8539Z" fill="currentColor"/>
</svg>
