<svg width="24" height="24" viewBox="0 0 24 24" fill="none" xmlns="http://www.w3.org/2000/svg">
<path d="M20.49 7.53116C20.4843 7.50479 20.4843 7.47752 20.49 7.45116C20.4851 7.42808 20.4851 7.40424 20.49 7.38116V7.29116L20.43 7.14116C20.4056 7.10023 20.3753 7.06316 20.34 7.03116L20.25 6.95116H20.2L16.26 4.46116L12.54 2.16116C12.4539 2.09289 12.3555 2.04195 12.25 2.01116H12.17C12.0806 1.99624 11.9894 1.99624 11.9 2.01116H11.8C11.6838 2.03685 11.5725 2.08072 11.47 2.14116L4 6.79116L3.91 6.86116L3.82 6.94116L3.72 7.01116L3.67 7.07116L3.61 7.22116V7.37116C3.60029 7.43747 3.60029 7.50485 3.61 7.57116V16.3012C3.60966 16.4711 3.65264 16.6383 3.73487 16.7871C3.81711 16.9358 3.93589 17.0611 4.08 17.1512L11.58 21.7912L11.73 21.8512H11.81C11.9792 21.9048 12.1608 21.9048 12.33 21.8512H12.41L12.56 21.7912L20 17.2212C20.1441 17.1311 20.2629 17.0058 20.3451 16.8571C20.4274 16.7083 20.4703 16.5411 20.47 16.3712V7.64116C20.47 7.64116 20.49 7.57116 20.49 7.53116ZM12 4.18116L13.78 5.28116L8.19 8.74116L6.4 7.64116L12 4.18116ZM11 19.1812L5.5 15.8212V9.43116L11 12.8312V19.1812ZM12 11.0712L10.09 9.92116L15.68 6.45116L17.6 7.64116L12 11.0712ZM18.5 15.7912L13 19.2112V12.8312L18.5 9.43116V15.7912Z" fill="currentColor"/>
</svg>
