<svg width="24" height="24" viewBox="0 0 24 24" fill="none" xmlns="http://www.w3.org/2000/svg">
<path d="M5.99996 11C5.80218 11 5.60884 11.0586 5.44439 11.1685C5.27994 11.2784 5.15177 11.4346 5.07608 11.6173C5.00039 11.8 4.98059 12.0011 5.01918 12.1951C5.05776 12.3891 5.153 12.5673 5.29286 12.7071C5.43271 12.847 5.61089 12.9422 5.80487 12.9808C5.99885 13.0194 6.19992 12.9996 6.38265 12.9239C6.56537 12.8482 6.72155 12.72 6.83143 12.5556C6.94131 12.3911 6.99996 12.1978 6.99996 12C6.99996 11.7348 6.8946 11.4804 6.70707 11.2929C6.51953 11.1054 6.26518 11 5.99996 11ZM18 11C17.8022 11 17.6088 11.0586 17.4444 11.1685C17.2799 11.2784 17.1518 11.4346 17.0761 11.6173C17.0004 11.8 16.9806 12.0011 17.0192 12.1951C17.0578 12.3891 17.153 12.5673 17.2929 12.7071C17.4327 12.847 17.6109 12.9422 17.8049 12.9808C17.9989 13.0194 18.1999 12.9996 18.3826 12.9239C18.5654 12.8482 18.7216 12.72 18.8314 12.5556C18.9413 12.3911 19 12.1978 19 12C19 11.7348 18.8946 11.4804 18.7071 11.2929C18.5195 11.1054 18.2652 11 18 11ZM20 5H3.99996C3.20431 5 2.44125 5.31607 1.87864 5.87868C1.31603 6.44129 0.999962 7.20435 0.999962 8V16C0.999962 16.7956 1.31603 17.5587 1.87864 18.1213C2.44125 18.6839 3.20431 19 3.99996 19H20C20.7956 19 21.5587 18.6839 22.1213 18.1213C22.6839 17.5587 23 16.7956 23 16V8C23 7.20435 22.6839 6.44129 22.1213 5.87868C21.5587 5.31607 20.7956 5 20 5ZM21 16C21 16.2652 20.8946 16.5196 20.7071 16.7071C20.5195 16.8946 20.2652 17 20 17H3.99996C3.73475 17 3.48039 16.8946 3.29286 16.7071C3.10532 16.5196 2.99996 16.2652 2.99996 16V8C2.99996 7.73478 3.10532 7.48043 3.29286 7.29289C3.48039 7.10536 3.73475 7 3.99996 7H20C20.2652 7 20.5195 7.10536 20.7071 7.29289C20.8946 7.48043 21 7.73478 21 8V16ZM12 9C11.4066 9 10.8266 9.17595 10.3333 9.50559C9.8399 9.83524 9.45539 10.3038 9.22832 10.8519C9.00126 11.4001 8.94185 12.0033 9.05761 12.5853C9.17336 13.1672 9.45908 13.7018 9.87864 14.1213C10.2982 14.5409 10.8327 14.8266 11.4147 14.9424C11.9966 15.0581 12.5998 14.9987 13.148 14.7716C13.6962 14.5446 14.1647 14.1601 14.4944 13.6667C14.824 13.1734 15 12.5933 15 12C15 11.2044 14.6839 10.4413 14.1213 9.87868C13.5587 9.31607 12.7956 9 12 9ZM12 13C11.8022 13 11.6088 12.9414 11.4444 12.8315C11.2799 12.7216 11.1518 12.5654 11.0761 12.3827C11.0004 12.2 10.9806 11.9989 11.0192 11.8049C11.0578 11.6109 11.153 11.4327 11.2929 11.2929C11.4327 11.153 11.6109 11.0578 11.8049 11.0192C11.9989 10.9806 12.1999 11.0004 12.3826 11.0761C12.5654 11.1518 12.7215 11.28 12.8314 11.4444C12.9413 11.6089 13 11.8022 13 12C13 12.2652 12.8946 12.5196 12.7071 12.7071C12.5195 12.8946 12.2652 13 12 13Z" fill="currentColor"/>
</svg>
