<svg width="24" height="24" viewBox="0 0 24 24" fill="none" xmlns="http://www.w3.org/2000/svg">
<path d="M17 11H9.41L12.71 7.71C12.8983 7.5217 13.0041 7.2663 13.0041 7C13.0041 6.7337 12.8983 6.47831 12.71 6.29C12.5217 6.1017 12.2663 5.99591 12 5.99591C11.7337 5.99591 11.4783 6.1017 11.29 6.29L6.29 11.29C6.19896 11.3851 6.1276 11.4973 6.08 11.62C5.97999 11.8635 5.97999 12.1365 6.08 12.38C6.1276 12.5028 6.19896 12.6149 6.29 12.71L11.29 17.71C11.383 17.8037 11.4936 17.8781 11.6154 17.9289C11.7373 17.9797 11.868 18.0058 12 18.0058C12.132 18.0058 12.2627 17.9797 12.3846 17.9289C12.5064 17.8781 12.617 17.8037 12.71 17.71C12.8037 17.617 12.8781 17.5064 12.9289 17.3846C12.9797 17.2627 13.0058 17.132 13.0058 17C13.0058 16.868 12.9797 16.7373 12.9289 16.6154C12.8781 16.4936 12.8037 16.383 12.71 16.29L9.41 13H17C17.2652 13 17.5196 12.8946 17.7071 12.7071C17.8946 12.5196 18 12.2652 18 12C18 11.7348 17.8946 11.4804 17.7071 11.2929C17.5196 11.1054 17.2652 11 17 11Z" fill="currentColor"/>
</svg>
