<?xml version="1.0" ?><svg id="Layer_1_1_" style="enable-background:new 0 0 64 64;" version="1.1" viewBox="0 0 64 64" xml:space="preserve" xmlns="http://www.w3.org/2000/svg" xmlns:xlink="http://www.w3.org/1999/xlink"><g><path d="M58,9H41V1H10.586L1,10.586V55h22v3c0,2.757,2.243,5,5,5h30c2.757,0,5-2.243,5-5V14   C63,11.243,60.757,9,58,9z M61,14v1H25v-1c0-1.654,1.346-3,3-3h30C59.654,11,61,12.346,61,14z M35,9h-7   c-2.414,0-4.434,1.721-4.899,4H9v14h14v4H7V12h5V7h23V9z M23,25H11V15h12v2H13v2h10V25z M10,10H4.414L10,4.414V10z M5,12v21h18v2H9   v2h14v2H5v2h18v6H3V12H5z M25,17h36v36H25V17z M39,9h-2V5H12V3h27V9z M3,53v-4h20v4H3z M58,61H28c-1.654,0-3-1.346-3-3v-3h36v3   C61,59.654,59.654,61,58,61z" style="fill:#3F3A34;"/><rect height="2" style="fill:#3F3A34;" width="2" x="5" y="35"/><rect height="2" style="fill:#3F3A34;" width="2" x="19" y="43"/><rect height="2" style="fill:#3F3A34;" width="12" x="5" y="43"/><rect height="2" style="fill:#3F3A34;" width="9" x="39" y="57"/><path d="M27,49h12V37H27V49z M29,39h8v8h-8V39z" style="fill:#3F3A34;"/><path d="M43.707,20.707l-1.414-1.414L39,22.586V20.95H27v12h12v-7.536L43.707,20.707z M37,30.95h-8v-8h8   v1.636l-3,3l-3.293-3.293l-1.414,1.414L34,30.414l3-3V30.95z" style="fill:#3F3A34;"/><rect height="2" style="fill:#3F3A34;" width="14" x="45" y="20.95"/><rect height="2" style="fill:#3F3A34;" transform="matrix(1 -0.0029 0.0029 1 -0.0759 0.1466)" width="18" x="41" y="24.975"/><rect height="2" style="fill:#3F3A34;" width="2" x="57" y="28.95"/><rect height="2" style="fill:#3F3A34;" width="14" x="41" y="28.95"/><rect height="2" style="fill:#3F3A34;" width="12" x="47" y="37"/><rect height="2" style="fill:#3F3A34;" width="4" x="41" y="37"/><rect height="2" style="fill:#3F3A34;" width="18" x="41" y="41"/><rect height="2" style="fill:#3F3A34;" width="2" x="57" y="45"/><rect height="2" style="fill:#3F3A34;" width="14" x="41" y="45"/><rect height="2" style="fill:#3F3A34;" width="2" x="13" y="21"/><rect height="2" style="fill:#3F3A34;" width="2" x="17" y="21"/></g></svg>