<?xml version="1.0" standalone="no"?>
<!DOCTYPE svg PUBLIC "-//W3C//DTD SVG 20010904//EN"
 "http://www.w3.org/TR/2001/REC-SVG-20010904/DTD/svg10.dtd">
<svg version="1.0" xmlns="http://www.w3.org/2000/svg"
 width="102.000000pt" height="102.000000pt" viewBox="0 0 102.000000 102.000000"
 preserveAspectRatio="xMidYMid meet">

<g transform="translate(0.000000,102.000000) scale(0.100000,-0.100000)"
fill="#000000" stroke="none">
<path d="M649 871 c-61 -46 -170 -155 -168 -169 0 -4 26 -20 59 -36 32 -15 89
-57 127 -91 l70 -64 49 49 c27 27 53 50 58 50 6 0 20 10 33 22 20 19 25 20 33
8 5 -8 10 -10 10 -4 0 30 -179 284 -200 284 -4 0 -36 -22 -71 -49z"/>
<path d="M182 665 c-31 -39 -125 -217 -137 -262 -5 -19 2 -28 47 -56 61 -39
156 -74 219 -83 l44 -6 2 104 c1 97 7 126 49 243 5 16 4 18 -6 8 -10 -9 -22
-8 -54 4 -22 9 -48 22 -57 30 -8 7 -27 13 -42 13 -19 0 -26 6 -29 22 -3 21 -6
19 -36 -17z"/>
<path d="M734 351 c-60 -38 -195 -91 -232 -91 -36 0 -83 -21 -73 -34 5 -6 11
-43 13 -82 2 -54 -1 -75 -12 -85 -12 -12 -4 -16 60 -28 90 -16 262 -4 350 26
l55 18 -4 50 c-5 71 -72 267 -90 264 -3 0 -33 -18 -67 -38z"/>
</g>
</svg>
